
<svg version="1.0" xmlns="http://www.w3.org/2000/svg"
 width="117.000000pt" height="117.000000pt" viewBox="0 0 117.000000 117.000000"
 preserveAspectRatio="xMidYMid meet">

<g transform="translate(0.000000,117.000000) scale(0.100000,-0.100000)"
fill="#0a62bc" stroke="none">
<path d="M180 1161 c-70 -22 -121 -65 -156 -131 -18 -33 -19 -64 -19 -445 0
-401 0 -411 22 -450 25 -47 64 -85 113 -111 33 -18 64 -19 445 -19 381 0 412
1 445 19 49 26 88 64 113 111 22 39 22 49 22 450 0 381 -1 412 -19 445 -26 49
-64 88 -111 113 -39 21 -51 22 -435 24 -217 1 -406 -2 -420 -6z m603 -459
l180 -179 -34 -56 -34 -56 -80 -1 -80 0 -72 -72 -72 -71 -50 33 -51 32 0 219
0 219 -125 0 -125 0 0 55 0 55 181 0 181 0 181 -178z m-433 -117 l0 -55 -55 0
-55 0 0 55 0 55 55 0 55 0 0 -55z"/>
<path d="M610 579 l0 -133 38 37 c36 35 42 37 102 37 l63 0 -24 26 c-13 14
-59 58 -101 96 l-78 70 0 -133z"/>
</g>
</svg>
